<svg xmlns="http://www.w3.org/2000/svg" viewBox="0 0 165.52 105.97"><defs><style>.a{fill:#fff;}</style></defs><title>Apple Pay logo - Brandlogos.net</title><path d="M579.94,459H442.36l-1.43,0a20.78,20.78,0,0,0-3.11.27,10.51,10.51,0,0,0-3,1,9.94,9.94,0,0,0-4.35,4.35,10.46,10.46,0,0,0-1,3,20.65,20.65,0,0,0-.28,3.11c0,.48,0,1,0,1.43s0,1.13,0,1.7v76.32c0,.57,0,1.13,0,1.7s0,1,0,1.43a20.64,20.64,0,0,0,.28,3.11,10.46,10.46,0,0,0,1,3,9.94,9.94,0,0,0,4.35,4.35,10.47,10.47,0,0,0,3,1,20.94,20.94,0,0,0,3.11.27l1.43,0H581.63l1.43,0a21,21,0,0,0,3.11-.27,10.48,10.48,0,0,0,3-1,9.94,9.94,0,0,0,4.35-4.35,10.4,10.4,0,0,0,1-3,20.63,20.63,0,0,0,.27-3.11q0-.71,0-1.43c0-.57,0-1.13,0-1.7V473.84c0-.57,0-1.13,0-1.7s0-1,0-1.43a20.64,20.64,0,0,0-.27-3.11,10.4,10.4,0,0,0-1-3,9.94,9.94,0,0,0-4.35-4.35,10.52,10.52,0,0,0-3-1,20.84,20.84,0,0,0-3.11-.27l-1.43,0Z" transform="translate(-429.24 -459.02)"/><path class="a" d="M579.94,462.55h1.67l1.36,0a17.66,17.66,0,0,1,2.58.22,7,7,0,0,1,2,.65,6.41,6.41,0,0,1,2.8,2.81,6.88,6.88,0,0,1,.64,2,17.56,17.56,0,0,1,.22,2.58c0,.45,0,.9,0,1.36s0,1.11,0,1.67v76.32c0,.56,0,1.11,0,1.68s0,.9,0,1.35a17.54,17.54,0,0,1-.22,2.59,6.86,6.86,0,0,1-.64,2,6.41,6.41,0,0,1-2.81,2.81,6.91,6.91,0,0,1-2,.65,18,18,0,0,1-2.57.22l-1.38,0H442.38l-1.35,0a18,18,0,0,1-2.58-.22,6.94,6.94,0,0,1-2-.65,6.41,6.41,0,0,1-2.8-2.8,6.93,6.93,0,0,1-.65-2,17.47,17.47,0,0,1-.22-2.58c0-.45,0-.9,0-1.35V472.17c0-.45,0-.9,0-1.36a17.49,17.49,0,0,1,.22-2.59,6.92,6.92,0,0,1,.65-2,6.41,6.41,0,0,1,2.8-2.8,7,7,0,0,1,2-.65,17.63,17.63,0,0,1,2.58-.22l1.35,0H579.94" transform="translate(-429.24 -459.02)"/><path d="M474.43,494.66a9.24,9.24,0,0,0,2.13-6.59,9.16,9.16,0,0,0-6.07,3.14,8.65,8.65,0,0,0-2.18,6.33,7.64,7.64,0,0,0,6.12-2.89" transform="translate(-429.24 -459.02)"/><path d="M476.52,498c-3.38-.2-6.26,1.92-7.87,1.92s-4.09-1.82-6.76-1.77a10,10,0,0,0-8.48,5.15c-3.63,6.26-1,15.55,2.57,20.66,1.72,2.52,3.78,5.3,6.51,5.2,2.57-.1,3.58-1.67,6.71-1.67s4,1.67,6.76,1.62,4.59-2.53,6.31-5.05a22.42,22.42,0,0,0,2.83-5.81,9.17,9.17,0,0,1-5.5-8.33,9.35,9.35,0,0,1,4.44-7.83,9.67,9.67,0,0,0-7.52-4.09" transform="translate(-429.24 -459.02)"/><path d="M506,491c7.35,0,12.47,5.07,12.47,12.44s-5.22,12.5-12.65,12.5h-8.14v12.94h-5.88V491H506Zm-8.32,20h6.75c5.12,0,8-2.76,8-7.53s-2.91-7.51-8-7.51h-6.77Z" transform="translate(-429.24 -459.02)"/><path d="M520,521c0-4.83,3.7-7.8,10.27-8.17l7.56-.45v-2.13c0-3.07-2.07-4.91-5.54-4.91-3.28,0-5.33,1.57-5.83,4h-5.36c.31-5,4.57-8.66,11.39-8.66s11,3.54,11,9.08v19H538V524.3h-.13a9.87,9.87,0,0,1-8.72,5C523.76,529.32,520,526,520,521Zm17.83-2.49v-2.18l-6.8.42c-3.39.24-5.3,1.73-5.3,4.1s2,4,5,4C534.71,524.83,537.81,522.1,537.81,518.5Z" transform="translate(-429.24 -459.02)"/><path d="M548.58,539v-4.59a10.5,10.5,0,0,0,1.84.1c2.63,0,4-1.1,4.91-3.94,0-.05.5-1.68.5-1.71l-10-27.65H552l7,22.47h.1l7-22.47h6l-10.34,29.06c-2.36,6.7-5.09,8.85-10.82,8.85A21.93,21.93,0,0,1,548.58,539Z" transform="translate(-429.24 -459.02)"/></svg>