<?xml version="1.0" encoding="utf-8"?>
<!-- Generator: Adobe Illustrator 26.0.1, SVG Export Plug-In . SVG Version: 6.00 Build 0)  -->
<svg version="1.1" id="Laag_1" xmlns="http://www.w3.org/2000/svg" xmlns:xlink="http://www.w3.org/1999/xlink" x="0px" y="0px"
	 viewBox="0 0 143.09 45" style="enable-background:new 0 0 143.09 45;" xml:space="preserve">
<style type="text/css">
	.st0{fill:#2bb48c;}
</style>
<g>
	<g>
		<path class="st0" d="M14.26,15.82v17.63c0,3.81,1.74,5.54,5.48,5.54c0.73,0,2.4-0.13,4.01-1.07v5.94C22.47,44.6,20.67,45,18.33,45
			c-6.61,0-10.55-3.94-10.55-10.75V15.82H0v-5.41h7.98V2.46l6.28-2v9.95V15.82z"/>
	</g>
</g>
<g>
	<path class="st0" d="M60.53,9.18h-4.28V7.97h9.86v1.21h-4.28v12.27h-1.3C60.53,21.45,60.53,9.18,60.53,9.18z"/>
</g>
<g>
	<path class="st0" d="M73.53,21.68c-2.21,0-3.64-1.59-3.64-3.93v-5.94h1.28v5.89c0,1.73,1.07,2.8,2.59,2.8
		c2.05,0,3.16-1.86,3.16-3.64v-5.04h1.28v9.64h-1.25v-1.9C76.39,20.8,75.22,21.68,73.53,21.68z"/>
	<path class="st0" d="M86.72,8.74c0,0.52-0.4,0.94-0.92,0.94s-0.94-0.42-0.94-0.94c0-0.54,0.42-0.94,0.94-0.94
		C86.32,7.8,86.72,8.2,86.72,8.74z M85.15,11.81h1.28v9.64h-1.28V11.81z"/>
	<path class="st0" d="M98.06,11.58c2.21,0,3.64,1.59,3.64,3.93v5.94h-1.28v-5.89c0-1.73-1.07-2.8-2.61-2.8
		c-2.03,0-3.14,1.86-3.14,3.64v5.04h-1.28V11.8h1.25v1.9C95.2,12.46,96.37,11.58,98.06,11.58z"/>
</g>
<g>
	<path class="st0" d="M65.87,35.26c0,0.31-0.04,0.65-0.08,0.86h-7.67c0.11,2.32,1.73,3.6,3.78,3.6c1.21,0,2.51-0.42,3.36-1.15v1.36
		c-1.09,0.77-2.36,0.98-3.53,0.98c-3.03,0-4.97-2.21-4.97-5.06c0-2.84,1.97-5.04,4.77-5.04C64.17,30.82,65.87,32.77,65.87,35.26z
		 M58.17,35.05h6.42c-0.08-1.88-1.38-3.07-3.09-3.07C59.74,31.99,58.4,33.25,58.17,35.05z"/>
</g>
<g>
	<path class="st0" d="M77.59,40.69l-2.76-4.14l-2.82,4.14h-1.48l3.39-5l-3.12-4.64h1.48l2.53,3.78l2.53-3.78h1.48l-3.14,4.64l3.39,5
		H77.59z"/>
	<path class="st0" d="M84.67,31.05h1.25v1.86c0.61-1.27,2.11-2.09,3.55-2.09c2.59,0,4.6,2.17,4.6,5.06c0,2.86-2.01,5.04-4.64,5.04
		c-1.44,0-2.82-0.79-3.47-1.94v5.54h-1.28V31.05H84.67z M89.27,39.73c1.94,0,3.49-1.65,3.49-3.85c0-2.22-1.55-3.87-3.47-3.87
		c-1.71,0-3.41,1.34-3.41,3.87S87.63,39.73,89.27,39.73z"/>
	<path class="st0" d="M101.45,32.98c0.52-1.46,1.65-2.17,2.95-2.17c0.19,0,0.4,0.02,0.54,0.06v1.27c-0.11-0.02-0.29-0.04-0.4-0.04
		c-1.82,0-3.05,1.36-3.05,3.62v4.97h-1.28v-9.64h1.25L101.45,32.98L101.45,32.98z"/>
</g>
<g>
	<g>
		<path class="st0" d="M118.69,35.27c0,0.31-0.04,0.65-0.08,0.86h-7.67c0.11,2.32,1.73,3.6,3.78,3.6c1.21,0,2.51-0.42,3.36-1.15
			v1.36c-1.09,0.77-2.36,0.98-3.53,0.98c-3.03,0-4.97-2.21-4.97-5.06c0-2.84,1.97-5.04,4.77-5.04
			C116.99,30.82,118.69,32.78,118.69,35.27z M110.99,35.06h6.42c-0.08-1.88-1.38-3.07-3.09-3.07
			C112.56,31.99,111.22,33.26,110.99,35.06z"/>
		<path class="st0" d="M130.41,31.7v1.34c-0.84-0.67-1.74-1.05-2.8-1.05c-1.34,0-2.13,0.65-2.13,1.51c0,0.92,0.86,1.3,2.3,1.76
			c1.59,0.48,3.11,1.03,3.11,2.82c0,1.73-1.36,2.84-3.43,2.84c-1.19,0-2.4-0.38-3.34-1.13v-1.44c0.94,0.88,2.01,1.4,3.26,1.4
			c1.42,0,2.26-0.69,2.26-1.65c0-1-0.92-1.36-2.42-1.82c-1.55-0.5-3.01-1.05-3.01-2.7c0-1.59,1.36-2.76,3.36-2.76
			C128.63,30.82,129.68,31.15,130.41,31.7z"/>
		<path class="st0" d="M142.61,31.7v1.34c-0.84-0.67-1.74-1.05-2.8-1.05c-1.34,0-2.13,0.65-2.13,1.51c0,0.92,0.86,1.3,2.3,1.76
			c1.59,0.48,3.11,1.03,3.11,2.82c0,1.73-1.36,2.84-3.43,2.84c-1.19,0-2.4-0.38-3.34-1.13v-1.44c0.94,0.88,2.01,1.4,3.26,1.4
			c1.42,0,2.26-0.69,2.26-1.65c0-1-0.92-1.36-2.42-1.82c-1.55-0.5-3.01-1.05-3.01-2.7c0-1.59,1.36-2.76,3.36-2.76
			C140.83,30.82,141.88,31.15,142.61,31.7z"/>
	</g>
</g>
<g>
	<g>
		<polyline class="st0" points="40.79,0 40.79,45 40.79,0 		"/>
		<rect x="40.69" class="st0" width="0.39" height="45"/>
	</g>
</g>
<g>
	<g>
		<path class="st0" d="M16.55,19.2C15.93,4.38,35.26,5.19,35.26,5.19C33.63,6,32.54,13.3,27.77,17.05
			c-3.98,3.13-7.86,2.94-9.85,2.54c3.07-7.82,10.78-9.92,10.78-9.92C21.84,9.78,16.55,19.2,16.55,19.2"/>
	</g>
</g>
</svg>
